PathFileType	4	(X/Y/Z)	C:/Users/beibeiliu/ov580/test_trc/User3\out3_training_dense_left.trc
DataRate	CameraRate	NumFrames	NumMarkers	Units	OrigDataRate	OrigDataStartFrame	OrigNumFrames
120	120	14	19	mm	120	376	500
Frame#	Time	ThumbCMC			ThumbMCP			ThumbIP			ThumbTip			IndexMCP			IndexPIP			IndexTip			MiddleMCP			MiddlePIP			MiddleTip			RingMCP			RingPIP			RingTip			PinkyMCP			PinkyPIP			PinkyTip			BackHand1			BackHand2			BackHand3	
		X0	Y0	Z0	X1	Y1	Z1	X2	Y2	Z2	X3	Y3	Z3	X4	Y4	Z4	X5	Y5	Z5	X6	Y6	Z6	X7	Y7	Z7	X8	Y8	Z8	X9	Y9	Z9	X10	Y10	Z10	X11	Y11	Z11	X12	Y12	Z12	X13	Y13	Z13	X14	Y14	Z14	X15	Y15	Z15	X16	Y16	Z16	X17	Y17	Z17	X18	Y18	Z18	
375	3.125	-158.834	59.8566	53.6008	-153.719	73.6605	22.4419	-148.252	81.3901	-6.58007	-144.799	76.1047	-33.7121	-183.766	43.9965	-20.2012	-164.379	47.7536	-47.8806	-131.107	52.7609	-36.6474	-174.023	25.8828	-25.2471	-140.312	30.1122	-35.6579	-132.124	30.9134	2.05685	-162.363	9.41332	-15.8453	-130.764	15.3029	-17.4421	-133.086	18.7422	19.6565	-153.084	-8.72558	-7.95091	-129.025	0.522442	-6.11399	-126.176	8.6293	23.5721	-189.714	4.04139	31.4517	-183.213	3.41065	64.9938	-187.847	36.2607	52.1315	
376	3.13333	-158.33	58.2364	51.4632	-151.651	73.5341	20.5491	-147.764	73.4803	-7.75559	-141.66	69.9581	-31.6486	-182.801	43.8831	-24.1853	-162.707	50.2723	-50.6896	-134.374	52.5616	-45.7648	-171.629	24.525	-27.2568	-139.392	33.4865	-35.9796	-130.878	34.3635	2.56475	-156.141	8.58622	-20.0511	-127.912	11.1483	-15.9465	-128.564	22.3574	14.8798	-152.24	-5.15039	-9.79975	-126.595	0.730392	-6.61343	-126.955	12.1654	23.8972	-187.998	2.86115	35.8752	-182.768	4.82024	62.1129	-187.34	36.4463	45.8357	
377	3.14167	-156.179	60.6373	52.0322	-151.845	69.5368	20.1612	-147.702	70.6707	-8.19132	-142.284	66.5582	-31.1933	-181.75	47.8973	-23.8645	-162.862	52.1273	-49.5317	-132.418	51.6795	-46.7745	-169.028	29.3574	-30.638	-139.034	33.5673	-37.38	-130.156	32.0332	2.9367	-155.904	12.8861	-19.8436	-128.044	14.1717	-16.8255	-129.134	22.6815	15.3413	-152.981	-5.32784	-8.05075	-125.524	-0.261379	-7.28058	-124.555	10.4587	21.7215	-185.669	5.8344	34.2001	-179.955	0.795294	61.531	-186.828	35.7556	47.714	
378	3.15	-156.92	59.6768	49.6369	-151.768	69.3678	19.2545	-147.392	74.2993	-9.41448	-144.604	64.9701	-32.4509	-180.799	45.3267	-24.6319	-159.281	51.9235	-50.2858	-129.356	49.3516	-43.3915	-167.527	27.2817	-27.7113	-134.596	29.14	-32.3122	-129.707	31.8561	5.01393	-156.566	8.53823	-16.2081	-125.142	13.1446	-15.2801	-130.858	22.2403	19.3918	-150.129	-6.41723	-9.45574	-123.472	0.0970575	-5.01421	-122.872	11.3056	21.1307	-184.022	2.07313	34.0132	-182.22	-0.0590823	61.2351	-186.586	37.0173	49.7078	
379	3.15833	-154.635	62.0909	51.3941	-149.61	72.0308	22.1357	-147.763	71.149	-5.39796	-143.661	71.4385	-32.9487	-179.259	46.0083	-20.5689	-160.055	47.451	-48.0978	-127.535	52.1202	-35.1992	-165.09	28.6418	-28.5419	-134.821	29.0895	-33.3794	-129.934	33.1176	5.98552	-153.135	13.8556	-19.2994	-125.768	13.0554	-14.4242	-127.935	21.9825	16.9974	-149.68	-3.20163	-9.5244	-124.065	1.78646	-6.63558	-122.858	6.32923	23.1006	-182.722	1.54833	34.124	-180.535	2.20225	61.8443	-183.74	39.9648	48.5076	
380	3.16667	-154.491	59.6722	48.6738	-149.798	71.8554	18.652	-148.155	74.9402	-10.3574	-146.519	69.0014	-33.1333	-177.819	48.9822	-25.5943	-152.884	49.0988	-45.9383	-127.118	54.8503	-26.0879	-164.813	27.8988	-24.9398	-131.592	29.6848	-31.0968	-132.97	32.8827	12.2804	-152.768	12.2817	-17.6415	-122.404	17.0223	-10.7492	-131.133	23.4097	20.7468	-148.896	-4.67854	-9.4237	-124.728	2.67263	-6.38719	-125.234	7.89435	23.9588	-185.153	4.65337	29.5694	-179.371	7.24937	60.5323	-183.421	38.1356	44.943	
381	3.175	-155.182	58.7414	48.6458	-151.39	70.6177	18.3888	-150.723	75.9947	-12.178	-146.306	72.1499	-34.0071	-173.963	46.683	-26.723	-149.843	54.3986	-42.6873	-127.603	51.2415	-12.1901	-160.783	26.7898	-27.8445	-129.644	31.8598	-26.9666	-133.03	33.3133	12.3489	-152.989	9.56756	-16.9597	-123.284	17.4773	-10.4568	-129.38	22.3325	21.4733	-149.935	-4.598	-7.37064	-122.535	3.21351	-3.96499	-126.976	12.3996	23.1321	-184.738	4.03442	31.3319	-178.385	4.30044	63.8408	-183.246	36.9619	48.7462	
382	3.18333	-154.347	64.0951	50.415	-151.716	68.7144	19.9266	-149.059	77.51	-8.45351	-147.278	77.0028	-33.6815	-171.772	49.2778	-23.2123	-139.235	53.66	-36.1047	-128.16	54.1135	-4.52929	-160.491	30.4884	-27.8075	-128.327	36.3114	-25.8922	-133.354	33.6025	14.8218	-150.223	12.6484	-19.5218	-123.207	17.4081	-10.7405	-130.638	22.6185	23.7447	-145.542	-5.44802	-10.8613	-124.034	5.90322	-5.00149	-125.014	10.115	27.6826	-183.657	8.24222	29.9341	-176.747	5.41803	61.4903	-183.882	34.9195	48.4879	
383	3.19167	-157.222	59.7269	46.89	-150.928	74.0218	21.083	-151.031	75.3601	-9.23039	-148.14	77.6956	-34.8243	-168.232	52.1044	-25.6639	-136.922	53.5348	-32.1893	-129.119	54.1273	2.79104	-161.477	25.9049	-24.8934	-129.19	31.7944	-26.5678	-132.332	37.4444	15.7552	-151.002	14.8558	-17.4371	-122.695	20.4517	-10.2698	-130.298	26.1185	21.6688	-146.024	-4.13042	-9.22422	-122.024	8.75955	-1.53275	-128.009	10.495	29.0051	-182.52	7.81792	31.0684	-178.511	2.4426	63.4118	-183.526	40.6599	48.3708	
384	3.2	-155.222	65.7673	51.541	-152.619	75.4091	19.4281	-149.579	84.4807	-7.52135	-145.633	81.3904	-31.0841	-163.247	50.0489	-26.1001	-133.396	55.383	-30.9082	-125.491	50.296	3.59982	-160.706	30.9011	-25.4444	-127.756	34.1761	-26.1871	-131.104	36.2134	15.1092	-150.911	13.8273	-17.4391	-120.773	17.3854	-10.7997	-129.461	21.436	23.7475	-147.788	-3.69374	-7.15876	-121.058	8.85883	-2.54534	-125.341	13.1955	28.6577	-181.897	5.15226	29.1275	-178.188	2.34802	60.4853	-184.3	38.111	44.5217	
385	3.20833	-154.872	61.879	47.718	-150.912	76.704	18.4657	-144.248	82.7188	-6.62471	-138.716	82.4989	-32.2751	-164.831	47.4258	-23.257	-132.909	57.5362	-32.6116	-122.948	54.527	2.27654	-157.737	32.3163	-27.3356	-124.723	34.7459	-25.0895	-128.476	35.5055	13.6387	-149.354	11.5347	-16.8741	-120.124	20.4527	-12.1718	-129.007	23.9557	24.5868	-145.592	-5.24053	-8.28758	-120.307	5.9438	-6.27067	-122.842	12.3302	25.9387	-181.456	4.23364	30.2409	-175.818	6.58841	63.3314	-180.792	37.3034	45.5118	
386	3.21667	-153.533	61.4956	49.7598	-144.998	76.1387	17.7686	-137.585	82.2886	-8.90388	-130.34	77.7925	-32.6912	-164.168	48.4655	-28.3687	-132.202	51.7535	-35.7152	-119.915	57.3004	-5.62115	-156.183	28.6595	-29.2147	-124.499	35.8535	-29.1962	-127.27	35.5614	12.2366	-147.592	13.093	-19.5251	-119.92	19.4992	-13.3597	-124.326	22.4995	20.3426	-146.092	-2.24727	-8.00318	-116.968	6.93884	-2.6462	-121.377	10.3442	23.805	-179.569	4.27026	27.7273	-176.197	5.65522	61.5365	-182.739	37.5875	44.056	
387	3.225	-152.361	66.6183	45.9384	-140.698	77.3033	18.2646	-133.218	80.131	-9.85026	-125.171	74.1937	-32.3807	-165.553	49.0677	-29.1004	-136.149	53.7917	-41.834	-120.255	54.9994	-13.4214	-154.642	30.2442	-31.1591	-125.04	34.6924	-31.0084	-124.42	35.3173	8.77171	-148.409	11.8077	-19.4477	-118.079	17.241	-13.4977	-126.093	24.3598	20.881	-144.581	-3.59542	-9.62054	-115.581	5.44773	-3.20894	-119.096	10.7072	22.7917	-179.254	6.68427	28.6422	-177.931	4.51244	58.8617	-180.15	38.989	44.6754	
388	3.23333	-154.397	64.3375	44.4604	-142.334	75.2494	20.4607	-135.9	82.1012	-10.2274	-128.29	75.3689	-34.3465	-169.551	46.5011	-27.5087	-142.873	52.4384	-43.6454	-122.411	53.8861	-13.6456	-156.841	30.9718	-31.4386	-125.793	32.6943	-31.1251	-125.37	35.4022	7.58522	-148.052	11.8208	-19.4357	-118.041	17.9719	-13.5898	-126.289	27.1627	17.6879	-142.871	-0.22745	-10.9276	-117.629	5.13384	-5.94787	-119.583	14.7712	21.2743	-179.452	7.65922	30.6208	-176.664	7.97379	63.6417	-183.302	40.7393	44.8886	
